<svg width="232" height="232" viewBox="0 0 232 232" fill="none" xmlns="http://www.w3.org/2000/svg">
<path fill-rule="evenodd" clip-rule="evenodd" d="M176.607 0C210.118 0 231.854 21.7359 231.854 55.2456V176.604C231.854 210.114 210.118 231.85 176.607 231.85H55.2466C21.7363 231.85 0 210.114 0 176.604V55.2456C0 21.7359 21.7363 0 55.2466 0H176.607Z" fill="url(#paint0_linear_1_49)"/>
<mask id="mask0_1_49" style="mask-type:luminance" maskUnits="userSpaceOnUse" x="20" y="29" width="191" height="174">
<path d="M211 29H20V202.138H211V29Z" fill="white"/>
</mask>
<g mask="url(#mask0_1_49)">
<path d="M185.605 53.449L176.277 101.822C176.258 101.919 176.265 102.019 176.297 102.112C176.329 102.205 176.385 102.288 176.458 102.351C176.532 102.415 176.621 102.457 176.715 102.474C176.811 102.49 176.908 102.48 176.998 102.445L186.97 98.5962C186.994 98.738 187.018 98.8848 187.041 99.0209C189.435 114.471 187.68 130.297 181.965 144.804C176.248 159.311 166.787 171.952 154.592 181.375C142.397 190.797 127.929 196.645 112.736 198.294C97.5444 199.942 82.2006 197.328 68.3483 190.731C82.8734 198.979 99.3691 202.884 115.956 202C132.543 201.116 148.554 195.48 162.164 185.733C175.775 175.985 186.438 162.519 192.939 146.868C199.439 131.218 201.516 114.013 198.932 97.2128L210.417 98.1673C210.515 98.1752 210.612 98.1558 210.7 98.1113C210.787 98.0668 210.861 97.9989 210.914 97.9146C210.966 97.8304 210.995 97.7332 210.998 97.6332C211.001 97.5333 210.978 97.4345 210.93 97.3473L186.602 53.2817C186.547 53.1839 186.465 53.1055 186.365 53.057C186.266 53.0085 186.155 52.9923 186.047 53.0105C185.938 53.0287 185.838 53.0805 185.758 53.1589C185.679 53.2373 185.625 53.3385 185.605 53.449Z" fill="url(#paint1_linear_1_49)"/>
<path d="M167.79 154.368C160.256 164.181 150.579 172.048 139.539 177.339C128.498 182.63 116.399 185.197 104.215 184.835C92.0295 184.472 80.0971 181.191 69.3747 175.253C58.6524 169.314 49.4386 160.885 42.4729 150.641C35.5071 140.398 30.9833 128.625 29.2643 116.268C27.5454 103.91 28.6792 91.3124 32.5748 79.4848C36.4704 67.6572 43.0194 56.9292 51.6961 48.1618C60.3729 39.3944 70.9359 32.8315 82.5376 29C67.5877 32.7623 53.9716 40.7514 43.2425 52.056C32.5133 63.3606 25.1032 77.5254 21.8575 92.9346C18.6118 108.344 19.6611 124.377 24.8857 139.205C30.1104 154.033 39.3 167.058 51.4063 176.796C63.5126 186.534 78.048 192.591 93.3544 194.277C108.661 195.963 124.122 193.21 137.974 186.332C151.826 179.454 163.511 168.728 171.697 155.377C179.881 142.026 184.237 126.588 184.266 110.825C183.167 126.704 177.426 141.876 167.79 154.368Z" fill="url(#paint2_linear_1_49)"/>
<path d="M150.646 70.0488C145.842 76.3143 140.379 82.0194 134.355 87.061C134.294 87.1122 134.244 87.1769 134.211 87.25C134.177 87.3232 134.16 87.4032 134.16 87.4841V165.756C134.16 166.386 133.964 166.999 133.601 167.508C133.239 168.017 132.728 168.394 132.142 168.586L132.08 168.606C131.646 168.749 131.185 168.784 130.735 168.71C130.285 168.636 129.858 168.453 129.491 168.178C129.122 167.903 128.823 167.543 128.616 167.127C128.41 166.711 128.302 166.251 128.302 165.784V92.8102C128.302 92.7098 128.276 92.6114 128.225 92.5255C128.175 92.4396 128.102 92.3697 128.015 92.3232C127.928 92.2767 127.831 92.2557 127.733 92.2621C127.635 92.2686 127.541 92.3024 127.461 92.36C119.484 97.9835 110.789 102.454 101.62 105.644C101.514 105.681 101.422 105.75 101.356 105.843C101.292 105.936 101.256 106.048 101.256 106.163V169.377C101.256 169.816 101.161 170.25 100.978 170.646C100.794 171.043 100.528 171.393 100.197 171.672C99.8654 171.951 99.478 172.15 99.0624 172.257C98.6467 172.364 98.2131 172.375 97.7927 172.29L97.6789 172.267C97.0232 172.134 96.433 171.772 96.0093 171.242C95.5856 170.712 95.3549 170.049 95.3565 169.364C95.3717 162.558 95.3869 153.394 95.3981 153.401V108.314C95.3981 108.229 95.3792 108.146 95.3429 108.071C95.3065 107.996 95.2537 107.93 95.1885 107.879C95.1233 107.827 95.0475 107.792 94.9669 107.776C94.8863 107.76 94.8031 107.763 94.7238 107.785L94.4588 107.856C86.9788 109.869 80.3604 114.361 75.6372 120.632C70.914 126.903 68.3521 134.599 68.3514 142.518V152.901C68.3529 153.48 68.1881 154.049 67.8777 154.533C67.5673 155.019 67.1248 155.4 66.605 155.63C66.085 155.86 65.5107 155.93 64.9528 155.829C64.395 155.729 63.8782 155.463 63.4663 155.065C51.9778 143.758 44.673 128.723 42.7963 112.52C40.9197 96.3177 44.5872 79.9499 53.1742 66.2055C61.7612 52.4611 74.7364 42.1904 89.8893 37.143C105.042 32.0957 121.435 32.5839 136.276 38.5246C124.591 32.8367 111.633 30.4539 98.7449 31.6234C85.8573 32.7929 73.51 37.4721 62.984 45.1756C52.458 52.8792 44.1368 63.3262 38.8835 75.4332C33.6303 87.5401 31.6365 100.866 33.1089 114.028C34.5813 127.19 39.4664 139.709 47.2573 150.285C55.0481 160.863 65.461 169.112 77.4156 174.179C89.3701 179.245 102.431 180.945 115.243 179.1C128.056 177.255 140.151 171.933 150.278 163.687C153.811 161.191 157.106 158.359 160.119 155.229L160.435 154.883C160.934 154.335 161.211 153.613 161.209 152.864V56.3191C161.209 56.3191 161.209 55.9747 161.209 55.518C161.21 55.3959 161.171 55.277 161.099 55.18C161.026 55.083 160.924 55.0135 160.809 54.9824C160.694 54.9513 160.571 54.9605 160.461 55.0083C160.352 55.0561 160.261 55.1399 160.203 55.2466C157.417 60.4392 154.221 65.3898 150.646 70.0488Z" fill="url(#paint3_linear_1_49)"/>
</g>
<defs>
<linearGradient id="paint0_linear_1_49" x1="0" y1="0" x2="0" y2="231.85" gradientUnits="userSpaceOnUse">
<stop stop-color="#247F4D"/>
<stop offset="1" stop-color="#1E673F"/>
</linearGradient>
<linearGradient id="paint1_linear_1_49" x1="68.3483" y1="127.563" x2="210.998" y2="127.563" gradientUnits="userSpaceOnUse">
<stop stop-color="#BCA371"/>
<stop offset="1" stop-color="#C97064"/>
</linearGradient>
<linearGradient id="paint2_linear_1_49" x1="20.0114" y1="111.88" x2="184.266" y2="111.88" gradientUnits="userSpaceOnUse">
<stop stop-color="#C97064"/>
<stop offset="1" stop-color="#A6B07E"/>
</linearGradient>
<linearGradient id="paint3_linear_1_49" x1="32.6379" y1="105.578" x2="161.209" y2="105.578" gradientUnits="userSpaceOnUse">
<stop stop-color="#BCA371"/>
<stop offset="1" stop-color="#C97064"/>
</linearGradient>
</defs>
</svg>
